<?xml version="1.0" encoding="utf-8"?>
<!-- Generator: Adobe Illustrator 23.0.0, SVG Export Plug-In . SVG Version: 6.00 Build 0)  -->
<svg version="1.1" id="Layer_1" xmlns="http://www.w3.org/2000/svg" xmlns:xlink="http://www.w3.org/1999/xlink" x="0px" y="0px"
	 viewBox="0 0 64 64" style="enable-background:new 0 0 64 64;" xml:space="preserve">
<style type="text/css">
	.st0{fill:#444B54;}
</style>
<g>
	<path class="st0" d="M53,19.5C53,19.5,53,19.5,53,19.5c-0.8,0-1.5,0.6-1.5,1.5v33.5c0,1-0.3,1.8-1,2.5S49,58,48,58H15
		c-0.9,0-2.5-1.5-2.5-3.5v-45C12.5,7.6,14.1,6,16,6h25.5v3.5c0,3.6,2.9,6.5,6.5,6.5h4.8c0,0,0.1,0,0.2,0l0,0c0.6,0,1.2-0.4,1.4-0.9
		c0.1-0.2,0.2-0.4,0.2-0.6c0-0.1,0-0.1,0-0.2c0-3-1.2-5.8-3.3-7.9C49,4.2,46,3,43,3H16c-3.6,0-6.5,2.9-6.5,6.5v45
		c0,3.7,2.9,6.5,5.5,6.5h33c1.8,0,3.3-0.7,4.6-1.9c1.2-1.2,1.9-2.8,1.9-4.6V21C54.5,20.1,53.8,19.5,53,19.5z M51.3,13H48
		c-2,0-3.5-1.6-3.5-3.5V6.2c1.7,0.3,3.2,1.1,4.5,2.3S51,11.3,51.3,13z"/>
	<g>
		<g>
			<g>
				<path class="st0" d="M43,31H21c-0.9,0-1.5-0.6-1.5-1.5S20.1,28,21,28h22c0.8,0,1.5,0.6,1.5,1.5S43.8,31,43,31z"/>
			</g>
		</g>
	</g>
	<g>
		<g>
			<g>
				<path class="st0" d="M33,16H21c-0.9,0-1.5-0.6-1.5-1.5S20.1,13,21,13h12c0.8,0,1.5,0.6,1.5,1.5S33.8,16,33,16z"/>
			</g>
		</g>
	</g>
	<g>
		<g>
			<g>
				<path class="st0" d="M43,38.5H21c-0.9,0-1.5-0.7-1.5-1.5s0.6-1.5,1.5-1.5h22c0.8,0,1.5,0.7,1.5,1.5S43.8,38.5,43,38.5z"/>
			</g>
		</g>
	</g>
	<g>
		<g>
			<g>
				<path class="st0" d="M35.5,46H21c-0.9,0-1.5-0.7-1.5-1.5S20.1,43,21,43h14.5c0.8,0,1.5,0.7,1.5,1.5S36.4,46,35.5,46z"/>
			</g>
		</g>
	</g>
	<g>
		<g>
			<g>
				<circle class="st0" cx="43" cy="44.5" r="1.5"/>
			</g>
		</g>
	</g>
</g>
</svg>
