<?xml version="1.0" encoding="utf-8"?>
<!-- Generator: Adobe Illustrator 23.0.0, SVG Export Plug-In . SVG Version: 6.00 Build 0)  -->
<svg version="1.1" id="Layer_1" xmlns="http://www.w3.org/2000/svg" xmlns:xlink="http://www.w3.org/1999/xlink" x="0px" y="0px"
	 viewBox="0 0 28 24" style="enable-background:new 0 0 28 24;" xml:space="preserve">
<style type="text/css">
	.st0{fill:#444B54;}
</style>
<title>Group 9</title>
<desc>Created with Sketch.</desc>
<g id="Desktop">
	<g id="C-desktop" transform="translate(-27.000000, -816.000000)">
		<g id="Stacked-Group-3" transform="translate(24.000000, 426.000000)">
			<g id="Group-7" transform="translate(2.000000, 387.000000)">
				<g id="Group-9">
					<path class="st0" d="M10,26.7c-0.2,0-0.3,0-0.5,0c-0.8-0.1-1.5-0.6-2-1.3c-0.4-0.6-0.6-1.4-0.6-2.1l0.2-1.7
						c0.1-1.3-0.6-2.5-1.7-3l-1.6-0.7c-1.6-0.7-2.2-2.6-1.5-4.1c0.3-0.7,0.9-1.2,1.5-1.5l1.6-0.7c1.2-0.5,1.9-1.7,1.7-3L6.9,6.7
						c0-0.8,0.2-1.6,0.7-2.3c0.5-0.6,1.3-1,2.1-1.1c0.7-0.1,1.5,0.1,2.1,0.6l1.4,1c1,0.7,2.4,0.7,3.5,0l1.4-1c1.4-1,3.3-0.7,4.3,0.7
						C22.8,5.2,23,6,23,6.7l-0.2,1.7c-0.1,1.3,0.6,2.5,1.7,3l1.6,0.7c1.6,0.7,2.2,2.6,1.5,4.1c-0.3,0.7-0.9,1.2-1.5,1.5l-1.6,0.7
						c-1.2,0.5-1.9,1.7-1.7,3l0.2,1.8c0.1,0.8-0.2,1.6-0.7,2.3s-1.3,1-2.1,1.1c-0.7,0.1-1.5-0.1-2.1-0.6l-1.4-1
						c-1-0.7-2.4-0.7-3.5,0l-1.4,1C11.3,26.5,10.7,26.7,10,26.7z M10,5.3H9.9c-0.3,0-0.6,0.2-0.7,0.4C9,5.9,8.9,6.2,8.9,6.5l0.2,1.8
						c0.2,2.1-1,4.1-2.9,5L4.6,14c-0.2,0.1-0.4,0.3-0.5,0.5c-0.3,0.6,0,1.2,0.5,1.5l1.6,0.7c1.9,0.9,3.1,2.9,2.9,5l-0.2,1.7
						c0,0.3,0,0.5,0.2,0.7s0.4,0.4,0.7,0.4c0.3,0.1,0.6,0,0.8-0.2l1.4-1c1.7-1.2,4.1-1.2,5.8,0l1.4,1c0.2,0.2,0.5,0.2,0.7,0.2
						c0.3,0,0.6-0.2,0.7-0.4c0.2-0.2,0.3-0.5,0.2-0.8l-0.2-1.8c-0.2-2.1,1-4.1,2.9-5l1.6-0.7c0.2-0.1,0.4-0.3,0.5-0.5
						c0.3-0.6,0-1.2-0.5-1.5l-1.6-0.7c-1.9-0.9-3.1-2.9-2.9-5l0.2-1.7c0-0.3,0-0.5-0.2-0.7c-0.4-0.5-1-0.6-1.5-0.3l-1.4,1
						c-1.7,1.2-4.1,1.2-5.8,0l-1.4-1C10.5,5.4,10.3,5.3,10,5.3z"/>
					<path class="st0" d="M15,20c-2.8,0-5-2.2-5-5s2.2-5,5-5s5,2.2,5,5S17.8,20,15,20z M15,12c-1.7,0-3,1.3-3,3s1.3,3,3,3s3-1.3,3-3
						S16.7,12,15,12z"/>
				</g>
			</g>
		</g>
	</g>
</g>
</svg>
