<?xml version="1.0" encoding="utf-8"?>
<!-- Generator: Adobe Illustrator 23.0.0, SVG Export Plug-In . SVG Version: 6.00 Build 0)  -->
<svg version="1.1" id="Layer_1" xmlns="http://www.w3.org/2000/svg" xmlns:xlink="http://www.w3.org/1999/xlink" x="0px" y="0px"
	 viewBox="0 0 64 64" style="enable-background:new 0 0 64 64;" xml:space="preserve">
<style type="text/css">
	.st0{fill:#444B54;}
</style>
<g>
	<g>
		<path class="st0" d="M52,58.5H12c-3.6,0-6.5-2.9-6.5-6.5V38c0-0.8,0.7-1.5,1.5-1.5s1.5,0.7,1.5,1.5v14c0,2,1.6,3.5,3.5,3.5h40
			c2,0,3.5-1.5,3.5-3.5V38c0-0.8,0.7-1.5,1.5-1.5s1.5,0.7,1.5,1.5v14C58.5,55.6,55.6,58.5,52,58.5z"/>
	</g>
	<g>
		<path class="st0" d="M32,39c-8.9,0-17.8-2.4-25.8-7.1c-0.4-0.3-0.8-0.8-0.8-1.3v-13c0-1.1,0.9-2,2-2h49c1.1,0,2,0.9,2,2v13
			c0,0.5-0.3,1-0.8,1.3C49.8,36.5,40.9,39,32,39z M8.5,29.6C23,38,41,38,55.5,29.6V18.5h-47V29.6z"/>
	</g>
	<g>
		<path class="st0" d="M41,13.5c-0.8,0-1.5-0.6-1.5-1.5c0-1.9-1.5-3.5-3.5-3.5h-8c-2,0-3.5,1.6-3.5,3.5c0,0.9-0.6,1.5-1.5,1.5
			s-1.5-0.6-1.5-1.5c0-3.6,2.9-6.5,6.5-6.5h8c3.6,0,6.5,2.9,6.5,6.5C42.5,12.9,41.8,13.5,41,13.5z"/>
	</g>
</g>
</svg>
