<?xml version="1.0" encoding="UTF-8"?>
<svg xmlns="http://www.w3.org/2000/svg" xmlns:xlink="http://www.w3.org/1999/xlink" viewBox="0 0 50 50" version="1.1" width="32px" height="32px">
<g id="surface1">
<path style=" " d="M 26.8125 5 C 22.339844 5 19.0625 6.765625 17.34375 9.375 C 16.992188 9.910156 16.71875 10.472656 16.5 11.0625 L 16.28125 10.5625 C 16.113281 10.214844 15.761719 9.996094 15.375 10 C 11.890625 10 9.292969 11.402344 7.9375 13.5 C 6.699219 15.410156 6.636719 17.824219 7.40625 20.0625 C 7.074219 20.519531 6.84375 21.074219 6.9375 21.875 C 7.042969 22.777344 7.28125 23.445313 7.65625 23.9375 C 7.816406 24.148438 8.046875 24.148438 8.25 24.28125 C 8.382813 25.023438 8.574219 25.761719 8.875 26.375 C 9.054688 26.742188 9.265625 27.058594 9.46875 27.34375 C 9.535156 27.4375 9.648438 27.507813 9.71875 27.59375 C 9.722656 28.382813 9.71875 29.058594 9.65625 29.875 C 9.472656 30.339844 9.042969 30.765625 8.21875 31.1875 C 7.375 31.621094 6.226563 32.015625 5.0625 32.53125 C 3.898438 33.046875 2.695313 33.667969 1.71875 34.6875 C 0.742188 35.707031 0.0429688 37.121094 -0.0625 38.9375 C -0.078125 39.214844 0.0195313 39.484375 0.207031 39.683594 C 0.398438 39.886719 0.660156 40 0.9375 40 L 7.25 40 C 7.078125 40.601563 6.949219 41.238281 6.90625 41.9375 C 6.890625 42.214844 6.988281 42.484375 7.175781 42.683594 C 7.367188 42.886719 7.628906 43 7.90625 43 L 42.09375 43 C 42.371094 43 42.632813 42.886719 42.824219 42.683594 C 43.011719 42.484375 43.109375 42.214844 43.09375 41.9375 C 43.050781 41.238281 42.921875 40.601563 42.75 40 L 49 40 C 49.277344 40 49.539063 39.886719 49.730469 39.683594 C 49.917969 39.484375 50.015625 39.214844 50 38.9375 C 49.894531 37.128906 49.1875 35.730469 48.21875 34.71875 C 47.25 33.707031 46.0625 33.074219 44.90625 32.5625 C 43.75 32.050781 42.617188 31.648438 41.78125 31.21875 C 40.984375 30.808594 40.566406 30.386719 40.375 29.9375 C 40.3125 29.113281 40.308594 28.425781 40.3125 27.625 C 40.375 27.542969 40.5 27.492188 40.5625 27.40625 C 40.761719 27.121094 40.953125 26.804688 41.125 26.4375 C 41.40625 25.84375 41.585938 25.117188 41.71875 24.40625 C 41.929688 24.273438 42.175781 24.25 42.34375 24.03125 C 42.71875 23.539063 42.925781 22.867188 43.03125 21.96875 C 43.097656 21.40625 43.058594 20.910156 42.875 20.46875 C 42.824219 20.351563 42.664063 20.296875 42.59375 20.1875 C 42.800781 19.691406 43.035156 19.234375 43.09375 18.625 C 43.183594 17.699219 43.136719 16.640625 42.875 15.625 C 42.613281 14.609375 42.140625 13.625 41.34375 12.84375 C 40.703125 12.214844 39.800781 11.839844 38.78125 11.6875 L 38.28125 10.59375 C 38.121094 10.234375 37.765625 10.003906 37.375 10 C 35.996094 10 34.597656 10.164063 33.28125 10.5625 C 32.929688 9.761719 32.460938 9 31.8125 8.375 C 30.964844 7.558594 29.746094 7.089844 28.375 6.9375 L 27.6875 5.5625 C 27.523438 5.226563 27.1875 5.007813 26.8125 5 Z M 26.21875 7.0625 L 26.8125 8.25 C 26.976563 8.585938 27.3125 8.804688 27.6875 8.8125 C 28.921875 8.8125 29.753906 9.179688 30.40625 9.8125 C 30.945313 10.332031 31.375 11.039063 31.65625 11.84375 C 31.664063 11.886719 31.675781 11.929688 31.6875 11.96875 C 31.691406 11.976563 31.683594 11.992188 31.6875 12 C 31.707031 12.121094 31.75 12.238281 31.8125 12.34375 C 31.816406 12.351563 31.808594 12.367188 31.8125 12.375 C 32.078125 13.390625 32.121094 14.507813 32.03125 15.4375 C 31.941406 16.367188 31.648438 17.113281 31.46875 17.34375 C 31.269531 17.59375 31.199219 17.925781 31.289063 18.238281 C 31.375 18.546875 31.605469 18.796875 31.90625 18.90625 C 31.914063 18.917969 31.894531 18.914063 31.90625 18.9375 C 31.960938 19.0625 32.015625 19.324219 31.96875 19.71875 C 31.863281 20.601563 31.648438 21.058594 31.5 21.25 C 31.351563 21.441406 31.289063 21.40625 31.3125 21.40625 C 30.839844 21.445313 30.464844 21.8125 30.40625 22.28125 C 30.324219 23.054688 30.015625 24.003906 29.65625 24.75 C 29.476563 25.121094 29.285156 25.464844 29.125 25.6875 C 28.964844 25.910156 28.761719 26.03125 28.875 25.96875 C 28.550781 26.140625 28.347656 26.476563 28.34375 26.84375 C 28.34375 28.15625 28.300781 29.222656 28.4375 30.75 C 28.449219 30.835938 28.46875 30.917969 28.5 31 C 29.023438 32.425781 30.246094 33.304688 31.5625 33.96875 C 32.878906 34.632813 34.375 35.136719 35.78125 35.75 C 37.1875 36.363281 38.464844 37.066406 39.40625 38.03125 C 40.132813 38.777344 40.585938 39.78125 40.84375 41 L 9.15625 41 C 9.417969 39.78125 9.863281 38.808594 10.59375 38.0625 C 11.539063 37.097656 12.839844 36.363281 14.25 35.75 C 15.660156 35.136719 17.148438 34.632813 18.46875 33.96875 C 19.789063 33.304688 21.003906 32.425781 21.53125 31 C 21.5625 30.917969 21.582031 30.835938 21.59375 30.75 C 21.730469 29.222656 21.6875 28.15625 21.6875 26.84375 C 21.683594 26.476563 21.480469 26.140625 21.15625 25.96875 C 21.265625 26.027344 21.070313 25.914063 20.90625 25.6875 C 20.742188 25.460938 20.558594 25.121094 20.375 24.75 C 20.003906 24.003906 19.675781 23.046875 19.59375 22.28125 C 19.535156 21.8125 19.160156 21.445313 18.6875 21.40625 C 18.710938 21.40625 18.648438 21.441406 18.5 21.25 C 18.351563 21.058594 18.136719 20.601563 18.03125 19.71875 C 17.945313 18.992188 18.328125 18.765625 18.25 18.8125 C 18.679688 18.554688 18.851563 18.023438 18.65625 17.5625 C 17.941406 15.953125 17.738281 14.273438 18.0625 12.75 C 18.074219 12.71875 18.085938 12.6875 18.09375 12.65625 C 18.269531 11.875 18.589844 11.136719 19.03125 10.46875 C 20.277344 8.578125 22.621094 7.210938 26.21875 7.0625 Z M 36.78125 12.09375 L 37.125 12.9375 C 37.289063 13.304688 37.660156 13.539063 38.0625 13.53125 C 38.460938 13.53125 38.78125 13.585938 39.0625 13.6875 C 39.027344 13.789063 39 13.886719 39 14 C 39 14.550781 39.449219 15 40 15 C 40.152344 15 40.277344 14.9375 40.40625 14.875 C 40.628906 15.242188 40.820313 15.664063 40.9375 16.125 C 41.132813 16.882813 41.191406 17.710938 41.125 18.40625 C 41.078125 18.894531 40.953125 19.25 40.84375 19.5 C 40.667969 19.207031 40.363281 19 40 19 C 39.449219 19 39 19.449219 39 20 C 39 20.550781 39.449219 21 40 21 C 40.226563 21 40.425781 20.910156 40.59375 20.78125 C 40.679688 20.992188 40.832031 21.167969 41.03125 21.28125 C 41.054688 21.347656 41.09375 21.492188 41.0625 21.75 C 40.984375 22.40625 40.828125 22.710938 40.75 22.8125 C 40.71875 22.851563 40.691406 22.839844 40.6875 22.84375 C 40.253906 22.925781 39.921875 23.28125 39.875 23.71875 C 39.828125 24.164063 39.664063 24.703125 39.46875 25.1875 C 39.195313 25.367188 39 25.648438 39 26 C 39 26.035156 39.027344 26.058594 39.03125 26.09375 C 39.003906 26.140625 38.964844 26.214844 38.9375 26.25 C 38.824219 26.410156 38.6875 26.488281 38.84375 26.40625 C 38.519531 26.578125 38.316406 26.914063 38.3125 27.28125 C 38.3125 28.292969 38.269531 29.117188 38.375 30.3125 C 38.386719 30.398438 38.40625 30.480469 38.4375 30.5625 C 38.585938 30.976563 38.828125 31.3125 39.09375 31.625 C 39.097656 31.632813 39.089844 31.652344 39.09375 31.65625 C 39.050781 31.769531 39 31.871094 39 32 C 39 32.550781 39.449219 33 40 33 C 40.210938 33 40.402344 32.925781 40.5625 32.8125 C 40.667969 32.871094 40.765625 32.945313 40.875 33 C 41.671875 33.410156 42.53125 33.75 43.375 34.09375 C 43.613281 34.191406 43.863281 34.273438 44.09375 34.375 C 45.148438 34.84375 46.097656 35.382813 46.78125 36.09375 C 47.257813 36.589844 47.578125 37.230469 47.78125 38 L 47 38 C 47 37.449219 46.550781 37 46 37 C 45.449219 37 45 37.449219 45 38 L 42 38 C 41.96875 38 41.9375 38 41.90625 38 C 41.894531 38 41.886719 38 41.875 38 C 41.570313 37.503906 41.230469 37.054688 40.84375 36.65625 C 39.96875 35.761719 38.9375 35.105469 37.875 34.5625 C 37.710938 34.238281 37.390625 34 37 34 C 36.929688 34 36.878906 34.046875 36.8125 34.0625 C 36.726563 34.023438 36.648438 33.972656 36.5625 33.9375 C 35.734375 33.578125 34.941406 33.25 34.1875 32.9375 C 34.640625 32.84375 35 32.480469 35 32 C 35 31.449219 34.550781 31 34 31 C 33.449219 31 33 31.449219 33 32 C 33 32.1875 33.066406 32.351563 33.15625 32.5 C 32.933594 32.398438 32.671875 32.289063 32.46875 32.1875 C 31.390625 31.644531 30.726563 31.078125 30.4375 30.40625 C 30.417969 30.183594 30.417969 29.988281 30.40625 29.78125 C 30.574219 29.910156 30.773438 30 31 30 C 31.550781 30 32 29.550781 32 29 C 32 28.449219 31.550781 28 31 28 C 30.75 28 30.519531 28.097656 30.34375 28.25 C 30.339844 27.910156 30.339844 27.582031 30.34375 27.21875 C 30.460938 27.089844 30.640625 26.992188 30.75 26.84375 C 31 26.496094 31.214844 26.085938 31.4375 25.625 C 31.820313 24.832031 32.089844 23.882813 32.25 22.9375 C 32.53125 22.785156 32.835938 22.761719 33.0625 22.46875 C 33.367188 22.074219 33.613281 21.570313 33.78125 20.9375 C 33.855469 20.957031 33.917969 21 34 21 C 34.550781 21 35 20.550781 35 20 C 35 19.449219 34.550781 19 34 19 C 33.988281 19 33.980469 19 33.96875 19 C 33.929688 18.695313 33.859375 18.414063 33.75 18.15625 C 33.675781 17.980469 33.457031 17.902344 33.34375 17.75 C 33.652344 17.101563 33.949219 16.464844 34.03125 15.625 C 34.050781 15.417969 34.054688 15.214844 34.0625 15 C 34.585938 14.964844 35 14.53125 35 14 C 35 13.449219 34.550781 13 34 13 C 33.988281 13 33.980469 13 33.96875 13 C 33.941406 12.824219 33.910156 12.648438 33.875 12.46875 C 34.769531 12.226563 35.78125 12.136719 36.78125 12.09375 Z M 43.375 34.09375 C 43.253906 34.042969 43.136719 34 43 34 C 42.449219 34 42 34.449219 42 35 C 42 35.550781 42.449219 36 43 36 C 43.550781 36 44 35.550781 44 35 C 44 34.585938 43.734375 34.246094 43.375 34.09375 Z M 14.8125 12.125 L 15.15625 12.84375 C 15.222656 12.976563 15.320313 13.09375 15.4375 13.1875 C 15.179688 13.367188 15 13.660156 15 14 C 15 14.550781 15.449219 15 16 15 C 16.085938 15.933594 16.28125 16.871094 16.625 17.78125 C 16.375 18.117188 16.15625 18.53125 16.0625 19.03125 C 16.039063 19.03125 16.023438 19 16 19 C 15.449219 19 15 19.449219 15 20 C 15 20.550781 15.449219 21 16 21 C 16.082031 21 16.144531 20.957031 16.21875 20.9375 C 16.386719 21.570313 16.632813 22.074219 16.9375 22.46875 C 17.175781 22.773438 17.488281 22.8125 17.78125 22.96875 C 17.949219 23.90625 18.207031 24.84375 18.59375 25.625 C 18.820313 26.085938 19.058594 26.496094 19.3125 26.84375 C 19.414063 26.984375 19.578125 27.066406 19.6875 27.1875 C 19.6875 27.558594 19.6875 27.902344 19.6875 28.25 C 19.507813 28.085938 19.261719 28 19 28 C 18.449219 28 18 28.449219 18 29 C 18 29.550781 18.449219 30 19 30 C 19.25 30 19.480469 29.902344 19.65625 29.75 C 19.648438 29.949219 19.640625 30.132813 19.625 30.34375 C 19.351563 31.039063 18.675781 31.628906 17.5625 32.1875 C 17.328125 32.304688 17.074219 32.445313 16.8125 32.5625 C 16.925781 32.402344 17 32.210938 17 32 C 17 31.449219 16.550781 31 16 31 C 15.449219 31 15 31.449219 15 32 C 15 32.496094 15.371094 32.890625 15.84375 32.96875 C 15.089844 33.277344 14.261719 33.582031 13.4375 33.9375 C 13.351563 33.972656 13.273438 34.023438 13.1875 34.0625 C 13.121094 34.046875 13.070313 34 13 34 C 12.609375 34 12.289063 34.238281 12.125 34.5625 C 11.0625 35.105469 10.035156 35.761719 9.15625 36.65625 C 8.765625 37.054688 8.429688 37.507813 8.125 38 C 8.082031 37.996094 8.042969 37.996094 8 38 L 5 38 C 5 37.449219 4.550781 37 4 37 C 3.449219 37 3 37.449219 3 38 L 2.15625 38 C 2.363281 37.226563 2.675781 36.5625 3.15625 36.0625 C 3.84375 35.347656 4.808594 34.8125 5.875 34.34375 C 6.941406 33.875 8.09375 33.496094 9.125 32.96875 C 9.234375 32.914063 9.332031 32.839844 9.4375 32.78125 C 9.601563 32.898438 9.78125 33 10 33 C 10.550781 33 11 32.550781 11 32 C 11 31.882813 10.941406 31.792969 10.90625 31.6875 C 11.199219 31.359375 11.433594 30.976563 11.59375 30.53125 C 11.613281 30.449219 11.625 30.367188 11.625 30.28125 C 11.730469 29.078125 11.71875 28.234375 11.71875 27.21875 C 11.71875 26.875 11.539063 26.558594 11.25 26.375 C 11.246094 26.375 11.226563 26.363281 11.1875 26.34375 C 11.148438 26.3125 11.113281 26.261719 11.0625 26.1875 C 11.042969 26.160156 11.019531 26.097656 11 26.0625 C 11 26.042969 11 26.023438 11 26 C 11 25.660156 10.820313 25.367188 10.5625 25.1875 C 10.347656 24.683594 10.171875 24.121094 10.125 23.65625 C 10.085938 23.183594 9.71875 22.808594 9.25 22.75 C 9.242188 22.746094 9.230469 22.753906 9.21875 22.75 C 9.210938 22.742188 9.230469 22.730469 9.21875 22.71875 C 9.136719 22.613281 8.984375 22.316406 8.90625 21.65625 C 8.871094 21.359375 8.929688 21.210938 8.96875 21.15625 C 9.007813 21.132813 9.003906 21.121094 9 21.125 C 9.144531 21.03125 9.261719 20.902344 9.34375 20.75 C 9.519531 20.902344 9.75 21 10 21 C 10.550781 21 11 20.550781 11 20 C 11 19.449219 10.550781 19 10 19 C 9.660156 19 9.367188 19.179688 9.1875 19.4375 C 8.621094 17.820313 8.746094 16.167969 9.5 14.84375 C 9.648438 14.933594 9.8125 15 10 15 C 10.550781 15 11 14.550781 11 14 C 11 13.773438 10.910156 13.574219 10.78125 13.40625 C 11.75 12.703125 13.089844 12.230469 14.8125 12.125 Z M 13 16 C 12.449219 16 12 16.449219 12 17 C 12 17.550781 12.449219 18 13 18 C 13.550781 18 14 17.550781 14 17 C 14 16.449219 13.550781 16 13 16 Z M 37 16 C 36.449219 16 36 16.449219 36 17 C 36 17.550781 36.449219 18 37 18 C 37.550781 18 38 17.550781 38 17 C 38 16.449219 37.550781 16 37 16 Z M 13 22 C 12.449219 22 12 22.449219 12 23 C 12 23.550781 12.449219 24 13 24 C 13.550781 24 14 23.550781 14 23 C 14 22.449219 13.550781 22 13 22 Z M 37 22 C 36.449219 22 36 22.449219 36 23 C 36 23.550781 36.449219 24 37 24 C 37.550781 24 38 23.550781 38 23 C 38 22.449219 37.550781 22 37 22 Z M 16 25 C 15.449219 25 15 25.449219 15 26 C 15 26.550781 15.449219 27 16 27 C 16.550781 27 17 26.550781 17 26 C 17 25.449219 16.550781 25 16 25 Z M 34 25 C 33.449219 25 33 25.449219 33 26 C 33 26.550781 33.449219 27 34 27 C 34.550781 27 35 26.550781 35 26 C 35 25.449219 34.550781 25 34 25 Z M 13 28 C 12.449219 28 12 28.449219 12 29 C 12 29.550781 12.449219 30 13 30 C 13.550781 30 14 29.550781 14 29 C 14 28.449219 13.550781 28 13 28 Z M 37 28 C 36.449219 28 36 28.449219 36 29 C 36 29.550781 36.449219 30 37 30 C 37.550781 30 38 29.550781 38 29 C 38 28.449219 37.550781 28 37 28 Z M 7 34 C 6.449219 34 6 34.449219 6 35 C 6 35.550781 6.449219 36 7 36 C 7.550781 36 8 35.550781 8 35 C 8 34.449219 7.550781 34 7 34 Z "/>
</g>
</svg>
