<?xml version="1.0" encoding="UTF-8"?>
<svg xmlns="http://www.w3.org/2000/svg" xmlns:xlink="http://www.w3.org/1999/xlink" viewBox="0 0 50 50" version="1.1" width="32px" height="32px">
<g id="surface1">
<path style=" " d="M 34.0625 3.03125 C 32.777344 3.03125 31.484375 3.515625 30.5 4.5 L 28.5 6.5 C 27.511719 7.488281 27.101563 8.816406 27.15625 10.15625 L 24.96875 12.34375 L 22.84375 10.25 C 22.886719 8.921875 22.480469 7.574219 21.5 6.59375 L 19.5 4.59375 C 18.515625 3.609375 17.222656 3.125 15.9375 3.125 C 14.652344 3.125 13.390625 3.609375 12.40625 4.59375 C 10.4375 6.5625 10.4375 9.75 12.40625 11.71875 L 14.40625 13.71875 C 15.378906 14.691406 16.683594 15.066406 18 15.03125 L 22 19 L 3 19 L 3 45 L 47 45 L 47 19 L 31.625 19 L 29.78125 17.15625 L 32 14.9375 C 33.316406 14.972656 34.621094 14.566406 35.59375 13.59375 L 37.59375 11.59375 C 39.5625 9.625 39.5625 6.46875 37.59375 4.5 C 36.609375 3.515625 35.347656 3.03125 34.0625 3.03125 Z M 34.0625 4.96875 C 34.824219 4.96875 35.570313 5.289063 36.1875 5.90625 C 37.417969 7.136719 37.417969 8.957031 36.1875 10.1875 L 34.1875 12.1875 C 33.523438 12.851563 32.527344 13.144531 31.65625 13 C 31.335938 12.945313 31.011719 13.050781 30.78125 13.28125 L 28.34375 15.71875 L 26.375 13.75 L 28.8125 11.3125 C 29.042969 11.082031 29.148438 10.757813 29.09375 10.4375 C 28.949219 9.566406 29.242188 8.570313 29.90625 7.90625 L 31.90625 5.90625 C 32.523438 5.289063 33.300781 4.96875 34.0625 4.96875 Z M 15.9375 5.09375 C 16.699219 5.09375 17.476563 5.382813 18.09375 6 L 20.09375 8 C 20.757813 8.664063 21.050781 9.660156 20.90625 10.53125 C 20.851563 10.851563 20.957031 11.175781 21.1875 11.40625 L 35.53125 25.75 C 36.519531 26.65625 37 27.835938 37 29.1875 L 37 31.0625 L 32.71875 26.8125 L 32.71875 26.78125 L 32.59375 26.6875 L 30.625 24.75 L 19.21875 13.40625 C 18.988281 13.175781 18.664063 13.070313 18.34375 13.125 C 17.472656 13.269531 16.476563 12.945313 15.8125 12.28125 L 13.8125 10.28125 C 12.582031 9.050781 12.582031 7.230469 13.8125 6 C 14.429688 5.382813 15.175781 5.09375 15.9375 5.09375 Z M 16.5625 7.15625 C 16.1875 7.15625 15.800781 7.292969 15.5 7.59375 C 14.898438 8.195313 14.898438 9.085938 15.5 9.6875 L 16.5 10.6875 C 17 11.1875 17.992188 11.1875 18.59375 10.6875 C 19.195313 10.085938 19.195313 9.195313 18.59375 8.59375 L 17.59375 7.59375 C 17.292969 7.292969 16.9375 7.15625 16.5625 7.15625 Z M 33.4375 7.15625 C 33.0625 7.15625 32.707031 7.292969 32.40625 7.59375 L 31.40625 8.59375 C 30.90625 9.09375 30.90625 10.085938 31.40625 10.6875 C 32.007813 11.289063 32.898438 11.289063 33.5 10.6875 L 34.5 9.6875 C 35.101563 9.085938 35.101563 8.195313 34.5 7.59375 C 34.199219 7.292969 33.8125 7.15625 33.4375 7.15625 Z M 25 16 C 24.390625 16 23.90625 16.484375 23.90625 17.09375 C 23.90625 17.703125 24.390625 18.1875 25 18.1875 C 25.609375 18.1875 26.09375 17.703125 26.09375 17.09375 C 26.09375 16.484375 25.609375 16 25 16 Z M 5 21 L 7.34375 21 C 7.125 21.390625 6.96875 21.757813 6.84375 22.03125 C 6.742188 22.261719 6.632813 22.40625 6.625 22.4375 L 6.625 22.46875 L 6.59375 22.5 C 6.621094 22.472656 6.402344 22.621094 6.09375 22.75 C 5.792969 22.875 5.410156 23.03125 5 23.21875 Z M 10.59375 21 L 23.96875 21 L 24 21.03125 L 24 22.0625 C 19.464844 22.609375 16 26.886719 16 32 C 16 37.113281 19.46875 41.386719 24 41.9375 L 24 43 L 10.59375 43 C 9.691406 43 9.488281 42.699219 9.15625 42.125 C 8.992188 41.835938 8.839844 41.484375 8.6875 41.125 C 8.535156 40.765625 8.386719 40.386719 8 40 L 7.9375 39.9375 C 7.550781 39.605469 7.210938 39.511719 6.84375 39.375 C 6.476563 39.238281 6.09375 39.105469 5.78125 38.96875 C 5.46875 38.832031 5.238281 38.675781 5.125 38.5625 C 5.011719 38.449219 5 38.441406 5 38.3125 L 5 25.6875 C 5 25.621094 5.015625 25.59375 5.03125 25.5625 C 5.046875 25.53125 5.066406 25.496094 5.125 25.4375 C 5.242188 25.320313 5.496094 25.175781 5.8125 25.03125 C 6.128906 24.886719 6.5 24.75 6.875 24.59375 C 7.226563 24.449219 7.585938 24.292969 7.9375 23.96875 L 7.9375 23.9375 C 7.957031 23.921875 7.980469 23.921875 8 23.90625 C 8.375 23.554688 8.539063 23.171875 8.6875 22.84375 C 8.84375 22.492188 8.960938 22.15625 9.125 21.875 C 9.207031 21.734375 9.292969 21.609375 9.375 21.5 C 9.457031 21.390625 9.550781 21.292969 9.65625 21.21875 C 9.867188 21.070313 10.140625 21 10.59375 21 Z M 33.625 21 L 39.40625 21 C 40.308594 21 40.542969 21.308594 40.875 21.875 C 41.039063 22.15625 41.15625 22.492188 41.3125 22.84375 C 41.460938 23.171875 41.625 23.554688 42 23.90625 C 42.019531 23.925781 42.042969 23.917969 42.0625 23.9375 C 42.070313 23.945313 42.054688 23.960938 42.0625 23.96875 C 42.414063 24.292969 42.773438 24.449219 43.125 24.59375 C 43.5 24.75 43.871094 24.886719 44.1875 25.03125 C 44.503906 25.175781 44.757813 25.320313 44.875 25.4375 C 44.992188 25.554688 45 25.558594 45 25.6875 L 45 38.1875 C 45 38.316406 44.992188 38.351563 44.875 38.46875 C 44.757813 38.585938 44.503906 38.730469 44.1875 38.875 C 43.871094 39.019531 43.5 39.15625 43.125 39.3125 C 42.75 39.46875 42.378906 39.621094 42 40 C 41.613281 40.386719 41.464844 40.765625 41.3125 41.125 C 41.160156 41.484375 41.007813 41.835938 40.84375 42.125 C 40.511719 42.699219 40.308594 43 39.40625 43 L 26 43 L 26 41.9375 C 30.53125 41.386719 34 37.113281 34 32 C 34 31.621094 33.941406 31.246094 33.90625 30.875 L 37.28125 34.21875 C 37.566406 34.515625 38.007813 34.605469 38.386719 34.445313 C 38.765625 34.289063 39.007813 33.910156 39 33.5 L 39 29.1875 C 39 28.957031 38.992188 28.726563 38.96875 28.5 C 38.816406 26.914063 38.121094 25.410156 36.90625 24.28125 Z M 42.65625 21 L 45 21 L 45 23.21875 C 44.589844 23.03125 44.207031 22.875 43.90625 22.75 C 43.597656 22.621094 43.378906 22.472656 43.40625 22.5 L 43.375 22.46875 L 43.375 22.4375 C 43.367188 22.40625 43.257813 22.261719 43.15625 22.03125 C 43.03125 21.757813 42.875 21.390625 42.65625 21 Z M 24 24.09375 L 24 27 L 26 27 L 26 24.125 C 26.546875 24.234375 27.101563 24.40625 27.625 24.65625 L 29.84375 26.8125 L 31.09375 28.03125 L 31.09375 28.0625 C 31.652344 29.171875 32 30.53125 32 32 C 32 36.117188 29.339844 39.355469 26 39.90625 L 26 37 L 24 37 L 24 39.90625 C 20.660156 39.355469 18 36.117188 18 32 C 18 27.882813 20.660156 24.644531 24 24.09375 Z M 24 29 L 24 35 L 26 35 L 26 29 Z M 45 40.6875 L 45 43 L 42.65625 43 C 42.875 42.59375 43.03125 42.199219 43.15625 41.90625 C 43.296875 41.582031 43.441406 41.371094 43.40625 41.40625 C 43.378906 41.433594 43.597656 41.285156 43.90625 41.15625 C 44.207031 41.03125 44.589844 40.875 45 40.6875 Z M 5 40.78125 C 5.414063 40.960938 5.8125 41.101563 6.125 41.21875 C 6.421875 41.328125 6.625 41.445313 6.625 41.4375 C 6.617188 41.4375 6.714844 41.605469 6.84375 41.90625 C 6.96875 42.199219 7.125 42.59375 7.34375 43 L 5 43 Z "/>
</g>
</svg>
