<?xml version="1.0" encoding="utf-8"?>
<!-- Generator: Adobe Illustrator 23.0.0, SVG Export Plug-In . SVG Version: 6.00 Build 0)  -->
<svg version="1.1" id="Layer_1" xmlns="http://www.w3.org/2000/svg" xmlns:xlink="http://www.w3.org/1999/xlink" x="0px" y="0px"
	 viewBox="0 0 64 64" style="enable-background:new 0 0 64 64;" xml:space="preserve">
<style type="text/css">
	.st0{fill:#444B54;}
</style>
<g>
	<g>
		<g>
			<g>
				<path class="st0" d="M48,49.5H30.5c-0.9,0-1.5-0.7-1.5-1.5s0.6-1.5,1.5-1.5H48c0.8,0,1.5,0.7,1.5,1.5S48.8,49.5,48,49.5z"/>
			</g>
		</g>
	</g>
	<g>
		<g>
			<g>
				<path class="st0" d="M48,19.5H30.5c-0.9,0-1.5-0.6-1.5-1.5s0.6-1.5,1.5-1.5H48c0.8,0,1.5,0.6,1.5,1.5S48.8,19.5,48,19.5z"/>
			</g>
		</g>
	</g>
	<g>
		<g>
			<g>
				<path class="st0" d="M48,42H30.5c-0.9,0-1.5-0.7-1.5-1.5s0.6-1.5,1.5-1.5H48c0.8,0,1.5,0.7,1.5,1.5S48.8,42,48,42z"/>
			</g>
		</g>
	</g>
	<g>
		<g>
			<g>
				<path class="st0" d="M48,27H30.5c-0.9,0-1.5-0.6-1.5-1.5s0.6-1.5,1.5-1.5H48c0.8,0,1.5,0.6,1.5,1.5S48.8,27,48,27z"/>
			</g>
		</g>
	</g>
	<g>
		<g>
			<g>
				<path class="st0" d="M48,34.5H30.5c-0.9,0-1.5-0.7-1.5-1.5s0.6-1.5,1.5-1.5H48c0.8,0,1.5,0.7,1.5,1.5S48.8,34.5,48,34.5z"/>
			</g>
		</g>
	</g>
	<g>
		<g>
			<g>
				<path class="st0" d="M22,54.5c-0.9,0-1.5-0.7-1.5-1.5V11c0-0.9,0.6-1.5,1.5-1.5s1.5,0.6,1.5,1.5v42C23.5,53.8,22.9,54.5,22,54.5
					z"/>
			</g>
		</g>
	</g>
	<path class="st0" d="M53,3H16c-3.6,0-6.5,2.9-6.5,6.5V13h-1c-2.2,0-4,1.8-4,4s1.8,4,4,4h1v22h-1c-2.2,0-4,1.8-4,4s1.8,4,4,4h1v3.5
		c0,3.6,2.9,6.5,6.5,6.5h37c3.6,0,6.5-2.9,6.5-6.5v-45C59.5,5.9,56.6,3,53,3z M56.5,54.5c0,2-1.5,3.5-3.5,3.5H16
		c-1.9,0-3.5-1.5-3.5-3.5V51h1c2.2,0,4-1.8,4-4c0-0.8-0.6-1.5-1.5-1.5s-1.5,0.7-1.5,1.5c0,0.5-0.4,1-1,1h-5c-0.6,0-1-0.5-1-1
		s0.4-1,1-1H11c0.9,0,1.5-0.7,1.5-1.5V21h1c2.2,0,4-1.8,4-4c0-0.9-0.6-1.5-1.5-1.5s-1.5,0.6-1.5,1.5c0,0.5-0.4,1-1,1h-5
		c-0.6,0-1-0.5-1-1s0.4-1,1-1H11c0.9,0,1.5-0.6,1.5-1.5v-5C12.5,7.6,14.1,6,16,6h37c2,0,3.5,1.6,3.5,3.5V54.5z"/>
</g>
</svg>
