<?xml version="1.0" encoding="utf-8"?>
<!-- Generator: Adobe Illustrator 23.0.0, SVG Export Plug-In . SVG Version: 6.00 Build 0)  -->
<svg version="1.1" id="Layer_1" xmlns="http://www.w3.org/2000/svg" xmlns:xlink="http://www.w3.org/1999/xlink" x="0px" y="0px"
	 viewBox="0 0 64 64" style="enable-background:new 0 0 64 64;" xml:space="preserve">
<style type="text/css">
	.st0{fill:#444B54;}
</style>
<g>
	<path class="st0" d="M52.5,7.8c0-0.3,0-0.6-0.2-0.9c-0.1-0.2-0.2-0.3-0.3-0.4l0,0c0-0.1-0.2-0.1-0.2-0.1c-0.7-0.4-1.7-0.2-2,0.5
		C44,16.3,37.4,22.6,31,28.7c-4.9,4.7-9.6,9.2-13.6,14.7c0-2.5,0.2-6,1.4-9.7c3.2-10.1,11.4-17.3,24.6-21.4c0.8-0.2,1.2-1.1,1-1.9
		c-0.2-0.8-1.1-1.2-1.9-1c-9.8,3-22.3,9.6-26.6,23.5c-2,6.5-1.5,12.1-1.1,14.5c-1.5,2.5-2.9,5.2-4.1,8.1c-0.3,0.8,0.1,1.7,0.8,2
		c0.2,0.1,0.4,0.1,0.6,0.1c0.6,0,1.1-0.3,1.4-1c1-2.5,2.1-4.8,3.4-6.8c1.9,0.2,3.7,0.4,5.5,0.4c10,0,17.8-4.3,23-12.9
		c0.5-0.7,0.2-1.7-0.5-2c-0.7-0.5-1.7-0.2-2,0.5c-5.3,8.6-13.5,12.4-24.2,11.2c4.2-6.2,9.3-11,14.6-16c5.5-5.2,11.1-10.6,16.2-17.9
		c-0.3,3.6-1,8.7-2.6,13.8L41.4,29c-0.8,0.3-1.2,1.2-0.8,2c0.2,0.6,0.8,1,1.4,1c0.2,0,0.4,0,0.5-0.1l5.9-2.5
		c0.4-0.2,0.7-0.5,0.8-0.9c1.8-5.4,2.5-10.7,2.9-14.2C52.5,10.6,52.6,8.8,52.5,7.8z"/>
</g>
</svg>
