<?xml version="1.0" encoding="utf-8"?>
<!-- Generator: Adobe Illustrator 23.0.0, SVG Export Plug-In . SVG Version: 6.00 Build 0)  -->
<svg version="1.1" id="Layer_1" xmlns="http://www.w3.org/2000/svg" xmlns:xlink="http://www.w3.org/1999/xlink" x="0px" y="0px"
	 viewBox="0 0 64 64" style="enable-background:new 0 0 64 64;" xml:space="preserve">
<style type="text/css">
	.st0{fill:#444B54;}
</style>
<g>
	<g>
		<path class="st0" d="M61,63.5c-0.8,0-1.5-0.7-1.5-1.5V3.5h-32V62c0,0.8-0.6,1.5-1.5,1.5s-1.5-0.7-1.5-1.5V2c0-0.9,0.6-1.5,1.5-1.5
			h35c0.8,0,1.5,0.6,1.5,1.5v60C62.5,62.8,61.8,63.5,61,63.5z"/>
	</g>
	<g>
		<path class="st0" d="M45,63.5h-3c-0.8,0-1.5-0.7-1.5-1.5v-9c0-0.8,0.7-1.5,1.5-1.5h3c0.8,0,1.5,0.7,1.5,1.5v9
			C46.5,62.8,45.8,63.5,45,63.5z"/>
	</g>
	<g>
		<path class="st0" d="M18,63.5h-3c-0.9,0-1.5-0.7-1.5-1.5v-9c0-0.8,0.6-1.5,1.5-1.5h3c0.9,0,1.5,0.7,1.5,1.5v9
			C19.5,62.8,18.9,63.5,18,63.5z"/>
	</g>
	<g>
		<path class="st0" d="M6.5,63.5C5.7,63.5,5,62.8,5,62V23c0-0.6,0.4-1.2,0.9-1.4l13-5c0.8-0.3,1.6,0.1,2,0.9c0.3,0.8-0.1,1.6-0.9,2
			L8,24v38C8,62.8,7.3,63.5,6.5,63.5z"/>
	</g>
	<g>
		<g>
			<path class="st0" d="M52,24.5c-0.1,0-0.2,0-0.3,0c-0.7,0-1.5-1.2-1.2-1.8c0-0.7,0.8-1,1.2-1.2c1-0.2,1.4,0.5,1.8,1.2
				c0,0.7-0.1,1-0.6,1.5C52.7,24.3,52.3,24.5,52,24.5z"/>
		</g>
		<g>
			<path class="st0" d="M42,23c0-0.8,0.7-1.5,1.5-1.5c0.8,0,1.5,0.6,1.5,1.5l0,0c0,0.9-0.7,1.5-1.5,1.5C42.7,24.5,42,23.8,42,23z"/>
		</g>
		<g>
			<path class="st0" d="M35,24.5c-0.8,0-1.9-0.9-1.5-1.8c0-0.8,1.1-1.3,1.8-1.2c0.2,0,0.4,0.1,0.5,0.2c0.1,0,0.2,0.1,0.2,0.2
				c0.2,0.2,0.3,0.5,0.5,0.8c0,0.7-0.1,1-0.6,1.5c-0.2,0.1-0.3,0.2-0.5,0.2C35.2,24.5,35.1,24.5,35,24.5z"/>
		</g>
	</g>
	<g>
		<g>
			<path class="st0" d="M52,17c-0.1,0-0.2,0-0.3,0c-0.7,0-1-0.8-1.2-1.3c-0.1-0.2-0.1-0.4,0-0.6c0-0.7,0.8-1,1.2-1.2
				c0.8-0.2,2.3,0.7,1.8,1.8c0,0.2-0.1,0.4-0.2,0.6c-0.1,0.2-0.3,0.3-0.4,0.5c-0.2,0.1-0.3,0.2-0.5,0.2C52.2,17,52.1,17,52,17z"/>
		</g>
		<g>
			<path class="st0" d="M42,15.5c0-0.8,0.7-1.5,1.5-1.5c0.8,0,1.5,0.6,1.5,1.5l0,0c0,0.9-0.7,1.5-1.5,1.5C42.7,17,42,16.3,42,15.5z"
				/>
		</g>
		<g>
			<path class="st0" d="M35,17c-2.1,0-1.8-3.4,0.3-2.9c0.2,0,0.4,0.1,0.5,0.2c0.1,0.1,0.2,0.1,0.2,0.2c0.7,0.7,0.5,1.6-0.2,2.3
				c-0.2,0.1-0.3,0.2-0.5,0.2C35.2,17,35.1,17,35,17z"/>
		</g>
	</g>
	<g>
		<g>
			<path class="st0" d="M52,32c-0.1,0-0.2,0-0.3,0c-0.4,0-0.8-0.4-1-0.7c-0.1-0.2-0.2-0.3-0.2-0.5c-0.1-0.2-0.1-0.4,0-0.6
				c0-0.7,0.8-1,1.2-1.2c0.2,0,0.4,0,0.6,0c0.2,0,0.4,0.1,0.5,0.2c0.1,0,0.2,0.1,0.2,0.2c0.2,0.2,0.3,0.5,0.5,0.8
				C53.5,31.1,53.1,32,52,32z"/>
		</g>
		<g>
			<path class="st0" d="M42,30.5c0-0.8,0.7-1.5,1.5-1.5c0.8,0,1.5,0.6,1.5,1.5l0,0c0,0.9-0.7,1.5-1.5,1.5C42.7,32,42,31.3,42,30.5z"
				/>
		</g>
		<g>
			<path class="st0" d="M35,32c-0.5,0-0.9-0.3-1.2-0.7c-0.1-0.2-0.2-0.3-0.2-0.5c0-1,0.5-2,1.8-1.7c0.2,0,0.4,0.1,0.5,0.2
				c0.1,0,0.2,0.1,0.2,0.2c0.3,0.3,0.6,0.9,0.4,1.3c0,0.2-0.1,0.4-0.2,0.5c0,0.1-0.1,0.1-0.2,0.2c0,0-0.2,0.1-0.2,0.2
				c-0.2,0.1-0.3,0.2-0.5,0.2C35.2,32,35.1,32,35,32z"/>
		</g>
	</g>
	<g>
		<g>
			<path class="st0" d="M52,39.5c-0.5,0-0.9-0.3-1.2-0.7c-0.1-0.2-0.2-0.3-0.2-0.5c-0.1-0.2-0.1-0.4,0-0.6c0-0.7,0.9-1.2,1.5-1.2
				c0.9,0,1.2,0.5,1.5,1.2c0.1,0.2,0.1,0.4,0,0.6c0,0.2-0.1,0.4-0.2,0.5c0,0.1-0.1,0.2-0.2,0.2C52.8,39.3,52.4,39.5,52,39.5z"/>
		</g>
		<g>
			<path class="st0" d="M42,38c0-0.8,0.7-1.5,1.5-1.5c0.8,0,1.5,0.7,1.5,1.5l0,0c0,0.8-0.7,1.5-1.5,1.5C42.7,39.5,42,38.8,42,38z"/>
		</g>
		<g>
			<path class="st0" d="M35,39.5c-2.1,0-1.8-3.4,0.3-3c0.2,0,0.4,0.1,0.5,0.2c0.1,0,0.2,0.1,0.2,0.2c0.7,0.7,0.5,1.6-0.2,2.3
				c-0.2,0.1-0.3,0.2-0.5,0.2C35.2,39.5,35.1,39.5,35,39.5z"/>
		</g>
	</g>
	<g>
		<g>
			<path class="st0" d="M52,47c-0.5,0-0.9-0.3-1.2-0.7c-0.1-0.2-0.2-0.3-0.2-0.5c-0.1-0.2-0.1-0.4,0-0.6c0-2,3.8-1.2,3,0.5
				c0,0.2-0.1,0.4-0.2,0.5c0,0.1-0.1,0.2-0.2,0.2C52.8,46.8,52.4,47,52,47z"/>
		</g>
		<g>
			<path class="st0" d="M42,45.5c0-0.8,0.7-1.5,1.5-1.5c0.8,0,1.5,0.7,1.5,1.5l0,0c0,0.8-0.7,1.5-1.5,1.5C42.7,47,42,46.3,42,45.5z"
				/>
		</g>
		<g>
			<path class="st0" d="M35,47c-0.8,0-1.9-0.9-1.5-1.8c0-0.8,1.1-1.3,1.8-1.2c0.2,0,0.4,0.1,0.5,0.2c0.1,0,0.2,0.1,0.2,0.2
				c0.2,0.2,0.3,0.5,0.5,0.8C36.5,46.2,36.1,47,35,47z"/>
		</g>
	</g>
	<g>
		<g>
			<path class="st0" d="M52,54.5c-0.5,0-0.9-0.3-1.2-0.7c-0.1-0.2-0.2-0.3-0.2-0.5c-0.1-0.2-0.1-0.4,0-0.6c0-0.7,0.8-1,1.2-1.2
				c0.6-0.1,1.1,0.2,1.5,0.6c0.1,0.2,0.2,0.3,0.2,0.5c0.1,0.2,0.1,0.4,0,0.6c0,0.2-0.1,0.4-0.2,0.5c0,0.1-0.1,0.2-0.2,0.2
				C52.8,54.3,52.4,54.5,52,54.5z"/>
		</g>
		<g>
			<path class="st0" d="M35,54.5c-2.1,0-1.8-3.4,0.3-3c0.2,0,0.4,0.1,0.5,0.2c0.1,0,0.2,0.1,0.2,0.2c0.7,0.7,0.5,1.6-0.2,2.3
				c-0.2,0.1-0.3,0.2-0.5,0.2C35.2,54.5,35.1,54.5,35,54.5z"/>
		</g>
	</g>
	<g>
		<g>
			<path class="st0" d="M16.5,32c-0.8,0-1.9-0.9-1.4-1.8c0-0.8,1.1-1.3,1.8-1.2c0.2,0,0.4,0.1,0.5,0.2c0.4,0.2,0.5,0.6,0.7,1
				c0,1-0.3,1.4-1.2,1.8C16.7,32,16.6,32,16.5,32z"/>
		</g>
	</g>
	<g>
		<g>
			<path class="st0" d="M16.5,39.5c-0.8,0-1.9-0.9-1.4-1.8c0-0.8,1.1-1.3,1.8-1.2c0.2,0,0.4,0.1,0.5,0.2c0.4,0.2,0.5,0.6,0.7,1
				c0.1,0.2,0.1,0.4,0,0.6c0,0.2-0.1,0.4-0.2,0.5c0,0.1-0.1,0.2-0.2,0.2c-0.2,0.2-0.5,0.3-0.8,0.5C16.7,39.5,16.6,39.5,16.5,39.5z"
				/>
		</g>
	</g>
	<g>
		<g>
			<path class="st0" d="M16.5,47c-0.5,0-0.9-0.3-1.2-0.7C15.1,46.2,15,46,15,45.8c-0.1-0.2-0.1-0.4,0-0.6c0-0.8,1.1-1.3,1.8-1.2
				c0.2,0,0.4,0.1,0.5,0.2c0.4,0.2,0.5,0.6,0.7,1c0.1,0.2,0.1,0.4,0,0.6c0,0.2-0.1,0.4-0.2,0.5c0,0.1-0.1,0.2-0.2,0.2
				c-0.2,0.2-0.5,0.3-0.8,0.5C16.7,47,16.6,47,16.5,47z"/>
		</g>
	</g>
</g>
</svg>
