<?xml version="1.0"?>
<svg xmlns="http://www.w3.org/2000/svg" viewBox="0 0 50 50" width="32px" height="32px">
    <path style="line-height:normal;text-indent:0;text-align:start;text-decoration-line:none;text-decoration-style:solid;text-decoration-color:#000;text-transform:none;block-progression:tb;isolation:auto;mix-blend-mode:normal" d="M 40 5 L 40 8.0585938 C 38.532443 8.2211305 37.351126 8.7389846 36.509766 9.515625 C 35.484415 10.462102 35 11.75 35 13 C 35 14.772556 35.828601 16.132464 36.960938 16.947266 C 38.093272 17.762067 39.454499 18.144747 40.757812 18.470703 C 41.719769 18.711192 42.864286 19.073444 43.683594 19.636719 C 44.502902 20.199993 45 20.833333 45 22 C 45 22.75 44.734415 23.462102 44.134766 24.015625 C 43.535116 24.569148 42.559524 25 41 25 C 38.733333 25 37.937542 24.321752 37.486328 23.554688 C 37.035114 22.787623 37 21.75 37 21 L 35 21 C 35 21.75 34.96489 23.212377 35.763672 24.570312 C 36.459956 25.753995 37.845866 26.718778 40 26.947266 L 40 30 L 42 30 L 42 26.941406 C 43.467557 26.778869 44.648874 26.261015 45.490234 25.484375 C 46.515585 24.537898 47 23.25 47 22 C 47 20.166667 45.997098 18.800007 44.816406 17.988281 C 43.635714 17.176556 42.280231 16.788808 41.242188 16.529297 C 39.9985 16.218253 38.85982 15.850167 38.128906 15.324219 C 37.397992 14.79827 37 14.227444 37 13 C 37 12.25 37.265585 11.537898 37.865234 10.984375 C 38.464884 10.430852 39.440476 10 41 10 C 43.266667 10 44.062458 10.67825 44.513672 11.445312 C 44.964886 12.212378 45 13.25 45 14 L 47 14 C 47 13.25 47.03511 11.787621 46.236328 10.429688 C 45.540044 9.2460043 44.154134 8.2812217 42 8.0527344 L 42 5 L 40 5 z M 7 10 L 7 12.078125 C 5.8667941 12.239355 4.9328946 12.666941 4.2617188 13.304688 C 3.40133 14.122222 3 15.228556 3 16.294922 C 3 17.795227 3.6947768 18.981018 4.640625 19.681641 C 5.5864732 20.382263 6.7008741 20.698872 7.75 20.96875 C 8.5112127 21.164762 9.4022922 21.458309 10.021484 21.896484 C 10.640677 22.33466 11 22.793334 11 23.705078 C 11 24.285712 10.800939 24.828378 10.361328 25.246094 C 9.921717 25.663809 9.2039286 26 8 26 C 6.25 26 5.7063053 25.468944 5.3691406 24.878906 C 5.031976 24.288868 5 23.5 5 23 L 3 23 C 3 23.5 2.968024 24.711132 3.6308594 25.871094 C 4.1889726 26.847792 5.3166453 27.682381 7 27.923828 L 7 30 L 9 30 L 9 27.921875 C 10.133206 27.760645 11.067106 27.333059 11.738281 26.695312 C 12.59867 25.877778 13 24.771444 13 23.705078 C 13 22.145823 12.158541 20.957746 11.177734 20.263672 C 10.196927 19.569598 9.0887873 19.247238 8.25 19.03125 C 7.2621259 18.777128 6.376933 18.477846 5.8320312 18.074219 C 5.2871295 17.670591 5 17.265617 5 16.294922 C 5 15.714288 5.1990606 15.171622 5.6386719 14.753906 C 6.0782832 14.336191 6.7960714 14 8 14 C 9.75 14 10.293695 14.531056 10.630859 15.121094 C 10.968024 15.711132 11 16.5 11 17 L 13 17 C 13 16.5 13.03198 15.288868 12.369141 14.128906 C 11.811027 13.152208 10.683355 12.317619 9 12.076172 L 9 10 L 7 10 z M 23 10 L 23 12.078125 C 21.866794 12.239355 20.932894 12.666941 20.261719 13.304688 C 19.40133 14.122222 19 15.228556 19 16.294922 C 19 17.795227 19.694777 18.981018 20.640625 19.681641 C 21.586473 20.382263 22.700874 20.698872 23.75 20.96875 C 24.511213 21.164762 25.402291 21.458309 26.021484 21.896484 C 26.640677 22.33466 27 22.793334 27 23.705078 C 27 24.285712 26.800939 24.828378 26.361328 25.246094 C 25.921717 25.663809 25.203929 26 24 26 C 22.25 26 21.706305 25.468944 21.369141 24.878906 C 21.031976 24.288868 21 23.5 21 23 L 19 23 C 19 23.5 18.96802 24.711132 19.630859 25.871094 C 20.188973 26.847792 21.316645 27.682381 23 27.923828 L 23 30 L 25 30 L 25 27.921875 C 26.133206 27.760645 27.067106 27.333059 27.738281 26.695312 C 28.59867 25.877778 29 24.771444 29 23.705078 C 29 22.145823 28.158541 20.957746 27.177734 20.263672 C 26.196927 19.569598 25.088787 19.247238 24.25 19.03125 C 23.262126 18.777128 22.376933 18.477846 21.832031 18.074219 C 21.287129 17.670591 21 17.265617 21 16.294922 C 21 15.714288 21.199061 15.171622 21.638672 14.753906 C 22.078283 14.336191 22.796071 14 24 14 C 25.75 14 26.293695 14.531056 26.630859 15.121094 C 26.968024 15.711132 27 16.5 27 17 L 29 17 C 29 16.5 29.03198 15.288868 28.369141 14.128906 C 27.811027 13.152208 26.683355 12.317619 25 12.076172 L 25 10 L 23 10 z M 41 33.919922 L 41 36 L 41 39 L 30.728516 39 A 2 2 0 0 0 29 38 A 2 2 0 0 0 27.271484 39 L 17.730469 39 A 2 2 0 0 0 16 38 A 2 2 0 0 0 14.271484 39 L 4.7304688 39 A 2 2 0 0 0 3 38 A 2 2 0 0 0 1 40 A 2 2 0 0 0 3 42 A 2 2 0 0 0 4.7285156 41 L 14.269531 41 A 2 2 0 0 0 16 42 A 2 2 0 0 0 17.728516 41 L 27.269531 41 A 2 2 0 0 0 29 42 A 2 2 0 0 0 30.730469 41 L 41 41 L 41 46.080078 L 48.601562 40 L 41 33.919922 z M 43 38.082031 L 45.398438 40 L 43 41.917969 L 43 38.082031 z"/>
</svg>
