<?xml version="1.0" encoding="iso-8859-1"?>
<!-- Generator: Adobe Illustrator 19.1.1, SVG Export Plug-In . SVG Version: 6.00 Build 0)  -->
<svg xmlns="http://www.w3.org/2000/svg" xmlns:xlink="http://www.w3.org/1999/xlink" version="1.1" id="Layer_1" x="0px" y="0px" viewBox="0 0 40 40" style="enable-background:new 0 0 40 40;" xml:space="preserve" width="32px" height="32px">
<g>
	<polygon style="fill:#DBB065;" points="1.5,35.5 1.5,4.5 11.793,4.5 14.793,7.5 38.5,7.5 38.5,35.5  "/>
	<g>
		<path style="fill:#967A44;" d="M11.586,5l2.707,2.707L14.586,8H15h23v27H2V5H11.586 M12,4H1v32h38V7H15L12,4L12,4z"/>
	</g>
</g>
<g>
	<polygon style="fill:#F5CE85;" points="1.5,35.5 1.5,9.5 12.151,9.5 15.151,7.5 38.5,7.5 38.5,35.5  "/>
	<g>
		<path style="fill:#967A44;" d="M38,8v27H2V10h10h0.303l0.252-0.168L15.303,8H38 M39,7H15l-3,2H1v27h38V7L39,7z"/>
	</g>
</g>
<g>
	<path style="fill:#FFFAE0;" d="M20,31.5c-1.93,0-3.5-1.57-3.5-3.5c0-0.548,0.354-2.489,0.973-5.325   c0.151-0.692,0.753-1.175,1.465-1.175h2.125c0.711,0,1.314,0.483,1.465,1.175C23.146,25.511,23.5,27.452,23.5,28   C23.5,29.93,21.93,31.5,20,31.5z"/>
	<g>
		<path style="fill:#967A44;" d="M21.063,22c0.474,0,0.876,0.321,0.976,0.782C22.931,26.874,23,27.81,23,28c0,1.654-1.346,3-3,3    s-3-1.346-3-3c0-0.19,0.069-1.126,0.961-5.218c0.1-0.46,0.502-0.782,0.976-0.782H21.063 M21.063,21h-2.125    c-0.941,0-1.753,0.65-1.953,1.569C16.589,24.381,16,27.216,16,28c0,2.209,1.791,4,4,4s4-1.791,4-4    c0-0.784-0.589-3.619-0.984-5.431C22.816,21.65,22.004,21,21.063,21L21.063,21z"/>
	</g>
</g>
<g>
	<circle style="fill:#967A44;" cx="20" cy="28" r="1.5"/>
</g>
<g>
	<polygon style="fill:#967A44;" points="22.5,20 20,20 19,19 22.5,19  "/>
</g>
<g>
	<circle style="fill:#967A44;" cx="22.5" cy="19.5" r="0.5"/>
</g>
<g>
	<polygon style="fill:#967A44;" points="17.5,21 20,21 21,20 17.5,20  "/>
</g>
<g>
	<circle style="fill:#967A44;" cx="17.5" cy="20.5" r="0.5"/>
</g>
<g>
	<polygon style="fill:#967A44;" points="22.5,18 20,18 19,17 22.5,17  "/>
</g>
<g>
	<circle style="fill:#967A44;" cx="22.5" cy="17.5" r="0.5"/>
</g>
<g>
	<polygon style="fill:#967A44;" points="17.5,19 20,19 21,18 17.5,18  "/>
</g>
<g>
	<circle style="fill:#967A44;" cx="17.5" cy="18.5" r="0.5"/>
</g>
<g>
	<polygon style="fill:#967A44;" points="22.5,16 20,16 19,15 22.5,15  "/>
</g>
<g>
	<circle style="fill:#967A44;" cx="22.5" cy="15.5" r="0.5"/>
</g>
<g>
	<polygon style="fill:#967A44;" points="17.5,17 20,17 21,16 17.5,16  "/>
</g>
<g>
	<circle style="fill:#967A44;" cx="17.5" cy="16.5" r="0.5"/>
</g>
<g>
	<polygon style="fill:#967A44;" points="22.5,14 20,14 19,13 22.5,13  "/>
</g>
<g>
	<circle style="fill:#967A44;" cx="22.5" cy="13.5" r="0.5"/>
</g>
<g>
	<polygon style="fill:#967A44;" points="17.5,15 20,15 21,14 17.5,14  "/>
</g>
<g>
	<circle style="fill:#967A44;" cx="17.5" cy="14.5" r="0.5"/>
</g>
<g>
	<polygon style="fill:#967A44;" points="22.5,12 20,12 19,11 22.5,11  "/>
</g>
<g>
	<circle style="fill:#967A44;" cx="22.5" cy="11.5" r="0.5"/>
</g>
<g>
	<polygon style="fill:#967A44;" points="17.5,13 20,13 21,12 17.5,12  "/>
</g>
<g>
	<circle style="fill:#967A44;" cx="17.5" cy="12.5" r="0.5"/>
</g>
<g>
	<polygon style="fill:#967A44;" points="22.5,10 20,10 19,9 22.5,9  "/>
</g>
<g>
	<circle style="fill:#967A44;" cx="22.5" cy="9.5" r="0.5"/>
</g>
<g>
	<polygon style="fill:#967A44;" points="17.5,11 20,11 21,10 17.5,10  "/>
</g>
<g>
	<circle style="fill:#967A44;" cx="17.5" cy="10.5" r="0.5"/>
</g>
<g>
	<polygon style="fill:#967A44;" points="17.5,9 20,9 21,8 17.5,8  "/>
</g>
<g>
	<circle style="fill:#967A44;" cx="17.5" cy="8.5" r="0.5"/>
</g>
</svg>
