<?xml version="1.0"?>
<svg xmlns="http://www.w3.org/2000/svg" viewBox="0 0 50 50" width="32px" height="32px">
    <path style="line-height:normal;text-indent:0;text-align:start;text-decoration-line:none;text-decoration-style:solid;text-decoration-color:#000;text-transform:none;block-progression:tb;isolation:auto;mix-blend-mode:normal" d="M 14.5 1.4804688 L 13.748047 2.3417969 L 3 14.625 L 3 46 L 24 46 L 26 46 L 47 46 L 47 14.625 L 35.5 1.4804688 L 34.748047 2.3417969 L 25 13.482422 L 14.5 1.4804688 z M 14.5 4.5175781 L 24 15.375 L 24 44 L 5 44 L 5 15.375 L 14.5 4.5175781 z M 35.5 4.5175781 L 45 15.375 L 45 44 L 26 44 L 26 15.375 L 35.5 4.5175781 z M 7 17 L 7 18 L 7 24 L 13 24 L 13 17 L 7 17 z M 16 17 L 16 18 L 16 24 L 22 24 L 22 17 L 16 17 z M 28 17 L 28 18 L 28 24 L 34 24 L 34 17 L 28 17 z M 37 17 L 37 18 L 37 24 L 43 24 L 43 17 L 37 17 z M 9 19 L 11 19 L 11 22 L 9 22 L 9 19 z M 18 19 L 20 19 L 20 22 L 18 22 L 18 19 z M 30 19 L 32 19 L 32 22 L 30 22 L 30 19 z M 39 19 L 41 19 L 41 22 L 39 22 L 39 19 z M 7 26 L 7 27 L 7 33 L 13 33 L 13 26 L 7 26 z M 16 26 L 16 27 L 16 33 L 22 33 L 22 26 L 16 26 z M 28 26 L 28 27 L 28 33 L 34 33 L 34 26 L 28 26 z M 37 26 L 37 27 L 37 33 L 43 33 L 43 26 L 37 26 z M 9 28 L 11 28 L 11 31 L 9 31 L 9 28 z M 18 28 L 20 28 L 20 31 L 18 31 L 18 28 z M 30 28 L 32 28 L 32 31 L 30 31 L 30 28 z M 39 28 L 41 28 L 41 31 L 39 31 L 39 28 z M 7 35 L 7 36 L 7 42 L 13 42 L 13 35 L 7 35 z M 16 35 L 16 36 L 16 42 L 22 42 L 22 35 L 16 35 z M 28 35 L 28 36 L 28 42 L 34 42 L 34 35 L 28 35 z M 37 35 L 37 36 L 37 42 L 43 42 L 43 35 L 37 35 z M 9 37 L 11 37 L 11 40 L 9 40 L 9 37 z M 18 37 L 20 37 L 20 40 L 18 40 L 18 37 z M 30 37 L 32 37 L 32 40 L 30 40 L 30 37 z M 39 37 L 41 37 L 41 40 L 39 40 L 39 37 z"/>
</svg>
