<?xml version="1.0" encoding="utf-8"?>
<!-- Generator: Adobe Illustrator 21.1.0, SVG Export Plug-In . SVG Version: 6.00 Build 0)  -->
<svg xmlns="http://www.w3.org/2000/svg" xmlns:xlink="http://www.w3.org/1999/xlink" version="1.1" id="Layer_1" x="0px" y="0px" viewBox="0 0 128 128" style="enable-background:new 0 0 128 128;" xml:space="preserve" width="32px" height="32px">

<g>
	<g>
		<path d="M55,50c0-5.5-4.5-10-10-10H29h-1.2c-5,0-9.3,3.8-9.9,8.8L14,80h11v47h24V80h0c3.3,0,6-2.7,6-6V50z" style="fill:#FFFFFF;"/>
	</g>
	<g>
		<path d="M25,127c-1.7,0-3-1.3-3-3V80c0-1.7,1.3-3,3-3s3,1.3,3,3v44C28,125.7,26.7,127,25,127z" style="fill:#444B54;"/>
	</g>
	<g>
		<path d="M37,127c-1.7,0-3-1.3-3-3V86c0-1.7,1.3-3,3-3s3,1.3,3,3v38C40,125.7,38.7,127,37,127z" style="fill:#444B54;"/>
	</g>
	<g>
		<path d="M14,107c-1.7,0-3-1.3-3-3V90c0-1.7,1.3-3,3-3s3,1.3,3,3v14C17,105.7,15.7,107,14,107z" style="fill:#444B54;"/>
	</g>
	<g>
		<circle cx="37" cy="20" r="10" style="fill:#FFFFFF;"/>
	</g>
	<g>
		<path d="M37,33c-7.2,0-13-5.8-13-13S29.8,7,37,7s13,5.8,13,13S44.2,33,37,33z M37,13c-3.9,0-7,3.1-7,7s3.1,7,7,7    s7-3.1,7-7S40.9,13,37,13z" style="fill:#444B54;"/>
	</g>
	<g>
		<path d="M49,127c-1.7,0-3-1.3-3-3V80c0-1.7,1.3-3,3-3c1.7,0,3-1.3,3-3V50c0-3.9-3.1-7-7-7H27.8    c-3.5,0-6.5,2.6-6.9,6.1L17,80.4c-0.2,1.6-1.7,2.8-3.3,2.6c-1.6-0.2-2.8-1.7-2.6-3.3l3.9-31.2C15.7,41.9,21.3,37,27.8,37H45    c7.2,0,13,5.8,13,13v24c0,3.9-2.5,7.2-6,8.5V124C52,125.7,50.7,127,49,127z" style="fill:#444B54;"/>
	</g>
	<g>
		<g>
			<path d="M105,40H89c-5.5,0-10,4.5-10,10l-4,30l10,0v12h24V80h0c3.3,0,6-2.7,6-6V50C115,44.5,110.5,40,105,40z" style="fill:#FFFFFF;"/>
		</g>
		<g>
			<circle cx="97" cy="20" r="10" style="fill:#FFFFFF;"/>
		</g>
		<g>
			<path d="M97,33c-7.2,0-13-5.8-13-13S89.8,7,97,7s13,5.8,13,13S104.2,33,97,33z M97,13c-3.9,0-7,3.1-7,7s3.1,7,7,7     s7-3.1,7-7S100.9,13,97,13z" style="fill:#444B54;"/>
		</g>
	</g>
	<path d="M105,37H88.8c-6.5,0-12.1,4.9-12.9,11.4L72,79.6c-0.2,1.6,1,3.1,2.6,3.3c0.1,0,0.3,0,0.4,0   c1.5,0,2.8-1.1,3-2.6l3.9-31.2c0.4-3.5,3.4-6.1,6.9-6.1H105c3.9,0,7,3.1,7,7v24c0,1.7-1.3,3-3,3c-1.7,0-3,1.3-3,3v9H88v-3   c0-1.7-1.3-3-3-3s-3,1.3-3,3v5.7c0,0,0,0.1,0,0.1c0,0,0,0.1,0,0.1c0,1.7,1.3,3,3,3h4v29c0,1.7,1.3,3,3,3s3-1.3,3-3V95h4v29   c0,1.7,1.3,3,3,3s3-1.3,3-3V95h4c1.7,0,3-1.3,3-3v-9.5c3.5-1.2,6-4.6,6-8.5V50C118,42.8,112.2,37,105,37z" style="fill:#444B54;"/>
	<g>
		<path d="M75,107c-1.7,0-3-1.3-3-3V90c0-1.7,1.3-3,3-3s3,1.3,3,3v14C78,105.7,76.7,107,75,107z" style="fill:#444B54;"/>
	</g>
</g>
</svg>
