<?xml version="1.0" encoding="utf-8"?>
<!-- Generator: Adobe Illustrator 23.0.0, SVG Export Plug-In . SVG Version: 6.00 Build 0)  -->
<svg version="1.1" id="Layer_1" xmlns="http://www.w3.org/2000/svg" xmlns:xlink="http://www.w3.org/1999/xlink" x="0px" y="0px"
	 viewBox="0 0 64 64" style="enable-background:new 0 0 64 64;" xml:space="preserve">
<style type="text/css">
	.st0{fill:#3F4A54;}
</style>
<g>
	<g>
		<g>
			<path class="st0" d="M49,56.8H15c-1.4,0-2.8-0.8-3.3-2.2c-0.6-1.3-0.2-2.8,0.8-3.9l1-1V37.2c0-8,5.2-15.1,12.8-17.6
				c0.8-0.2,1.6,0.1,1.9,1c0.2,0.8-0.1,1.6-1,1.9c-6.4,2.1-10.7,8-10.7,14.8v13c0,0.4-0.1,0.8-0.5,1l-1.4,1.5
				c-0.2,0.2-0.2,0.5-0.1,0.6c0.1,0.2,0.2,0.3,0.6,0.3h34c0.3,0,0.5-0.2,0.5-0.3c0-0.2,0.1-0.4-0.1-0.6L48,51.3
				c-0.3-0.3-0.5-0.7-0.5-1v-13c0-6.8-4.3-12.6-10.7-14.8l-0.4-0.1c-1.3-0.4-2.3-1.4-2.8-2.6S33.5,17,34.3,16l3.3-4.4
				c-3.5-1.7-7.5-1.8-11-0.1l2.7,3.2c0.5,0.6,0.5,1.6-0.2,2.1c-0.6,0.5-1.6,0.5-2.1-0.2L23.2,12c-0.3-0.4-0.4-0.8-0.4-1.2
				s0.3-0.8,0.7-1.1l0.4-0.2c5.1-3.2,11.8-3.1,16.8,0.2c0.3,0.2,0.6,0.6,0.7,1c0,0.4,0,0.8-0.3,1.1l-4.3,5.8c-0.3,0.4-0.2,0.9-0.2,1
				s0.2,0.5,0.8,0.7l0.5,0.1h0c7.7,2.5,12.8,9.5,12.8,17.6v12.3l1,1c1,1,1.3,2.5,0.8,3.9C51.8,55.9,50.5,56.8,49,56.8z"/>
		</g>
		<g>
			<path class="st0" d="M24.2,12.6c-0.5,0-1-0.2-1.2-0.7c-0.5-0.7-0.2-1.6,0.5-2.1l0.4-0.2C29,6.5,35.6,6.6,40.6,9.9
				c0.7,0.4,0.9,1.4,0.4,2.1c-0.5,0.7-1.4,0.9-2.1,0.4c-4-2.7-9.4-2.8-13.5-0.2l-0.4,0.2C24.8,12.5,24.5,12.6,24.2,12.6z"/>
		</g>
		<g>
			<path class="st0" d="M44.8,19.1h-4c-0.8,0-1.5-0.6-1.5-1.5s0.7-1.5,1.5-1.5h4c0.8,0,1.5,0.6,1.5,1.5S45.6,19.1,44.8,19.1z"/>
		</g>
	</g>
	<g>
		<g>
			<path class="st0" d="M33.9,38.2l-3.1-0.8c-1-0.2-1.5-1-1.5-2c0-1.2,1-2.1,2.1-2.1h1.5c1,0,1.9,0.8,1.9,1.9c0,0.8,0.7,1.5,1.5,1.5
				s1.5-0.7,1.5-1.5c0-2.5-1.8-4.5-4.2-4.9v-0.6c0-0.9-0.7-1.5-1.5-1.5s-1.5,0.6-1.5,1.5v0.7c-2.4,0.4-4.2,2.5-4.2,5
				c0,2.3,1.6,4.3,3.9,5l3.1,0.8c1,0.2,1.5,1,1.5,2c0,1.2-1,2.1-2.1,2.1h-1.5c-1,0-1.9-0.8-1.9-1.9c0-0.8-0.6-1.5-1.5-1.5
				s-1.5,0.7-1.5,1.5c0,2.5,1.9,4.5,4.2,4.8v0.7c0,0.8,0.6,1.5,1.5,1.5s1.5-0.7,1.5-1.5v-0.7c2.4-0.4,4.2-2.5,4.2-5
				C37.8,40.8,36.2,38.8,33.9,38.2z"/>
		</g>
	</g>
</g>
</svg>
