<?xml version="1.0" encoding="utf-8"?>
<!-- Generator: Adobe Illustrator 23.0.0, SVG Export Plug-In . SVG Version: 6.00 Build 0)  -->
<svg version="1.1" id="Layer_1" xmlns="http://www.w3.org/2000/svg" xmlns:xlink="http://www.w3.org/1999/xlink" x="0px" y="0px"
	 viewBox="0 0 64 64" style="enable-background:new 0 0 64 64;" xml:space="preserve">
<style type="text/css">
	.st0{fill:#444B54;}
</style>
<g>
	<g>
		<path class="st0" d="M8.5,63.5C7.7,63.5,7,62.8,7,62V43.9C5.2,43,4,41.1,4,39V28c0-3.6,2.9-6.5,6.5-6.5h8c0.9,0,1.5,0.6,1.5,1.5
			s-0.6,1.5-1.5,1.5h-8C8.6,24.5,7,26,7,28v11c0,1.2,0.8,2.2,1.9,2.4c0.6,0.2,1.1,0.8,1.1,1.5V62C10,62.8,9.4,63.5,8.5,63.5z"/>
	</g>
	<g>
		<path class="st0" d="M14.5,19.5C10.9,19.5,8,16.6,8,13s2.9-6.5,6.5-6.5S21,9.4,21,13S18.1,19.5,14.5,19.5z M14.5,9.5
			c-1.9,0-3.5,1.6-3.5,3.5s1.6,3.5,3.5,3.5S18,14.9,18,13S16.5,9.5,14.5,9.5z"/>
	</g>
	<g>
		<path class="st0" d="M43.5,63.5c-0.8,0-1.5-0.7-1.5-1.5V47.8c0-0.8,0.7-1.5,1.5-1.5S45,47,45,47.8V62C45,62.8,44.3,63.5,43.5,63.5
			z"/>
	</g>
	<g>
		<path class="st0" d="M55.5,63.3c-0.8,0-1.5-0.7-1.5-1.5V43c0-0.8,0.7-1.5,1.5-1.5S57,40.8,57,40V28c0-2-1.5-3.5-3.5-3.5h-8
			c-0.8,0-1.5-0.6-1.5-1.5s0.7-1.5,1.5-1.5h8c3.6,0,6.5,2.9,6.5,6.5v12c0,2-1.2,3.6-3,4.2v17.7C57,62.7,56.3,63.3,55.5,63.3z"/>
	</g>
	<g>
		<path class="st0" d="M49.5,19.5c-3.6,0-6.5-2.9-6.5-6.5s2.9-6.5,6.5-6.5S56,9.4,56,13S53.1,19.5,49.5,19.5z M49.5,9.5
			c-2,0-3.5,1.6-3.5,3.5s1.5,3.5,3.5,3.5S53,14.9,53,13S51.5,9.5,49.5,9.5z"/>
	</g>
	<g>
		<path class="st0" d="M20.5,53.5c-0.9,0-1.5-0.7-1.5-1.5v-7c0-0.8,0.6-1.5,1.5-1.5S22,44.2,22,45v7C22,52.8,21.4,53.5,20.5,53.5z"
			/>
	</g>
	<g>
		<path class="st0" d="M32,16.5c-3.6,0-6.5-2.9-6.5-6.5s2.9-6.5,6.5-6.5s6.5,2.9,6.5,6.5S35.6,16.5,32,16.5z M32,6.5
			c-2,0-3.5,1.6-3.5,3.5s1.5,3.5,3.5,3.5s3.5-1.6,3.5-3.5S34,6.5,32,6.5z"/>
	</g>
	<path class="st0" d="M47.5,60.5h-8V43.4V43v-1.8c1.8-0.6,3-2.3,3-4.2v-9c0-2.2-0.5-9.5-6.5-9.5h-8.6c-3.2,0-6.1,2.5-6.4,5.7
		l-2,15.6c-0.1,0.8,0.5,1.5,1.3,1.7c0.8,0.1,1.5-0.5,1.6-1.3l2-15.6c0.2-1.8,1.7-3,3.5-3H36c3,0,3.5,4.1,3.5,6.5v9
		c0,0.8-0.7,1.5-1.5,1.5s-1.5,0.7-1.5,1.5v3v0.4v17.1h-3V43c0-0.8-0.7-1.5-1.5-1.5s-1.5,0.7-1.5,1.5v17.5h-3V40
		c0-0.8-0.6-1.5-1.5-1.5s-1.5,0.7-1.5,1.5v20.5h-8c-0.9,0-1.5,0.7-1.5,1.5s0.6,1.5,1.5,1.5h31c0.8,0,1.5-0.7,1.5-1.5
		S48.3,60.5,47.5,60.5z"/>
</g>
</svg>
