<?xml version="1.0" encoding="utf-8"?>
<!-- Generator: Adobe Illustrator 23.0.0, SVG Export Plug-In . SVG Version: 6.00 Build 0)  -->
<svg version="1.1" id="Layer_1" xmlns="http://www.w3.org/2000/svg" xmlns:xlink="http://www.w3.org/1999/xlink" x="0px" y="0px"
	 viewBox="0 0 64 64" style="enable-background:new 0 0 64 64;" xml:space="preserve">
<style type="text/css">
	.st0{fill:#444B54;}
	.st1{fill:#FFFFFF;}
</style>
<g>
	<g>
		<path class="st0" d="M58.5,20.3c-0.3-0.8-1.2-1.1-2-0.8c-0.8,0.4-1.1,1.2-0.8,2c4.3,9.9,2.2,21.2-5.4,28.9
			c-9.4,9.3-24.1,10-34.3,2.2l2.6-0.3c0.8-0.1,1.4-0.8,1.3-1.7c-0.1-0.8-0.9-1.4-1.6-1.3l-6,0.7h-0.1c-0.1,0-0.1,0-0.1,0
			c-0.1,0-0.1,0-0.1,0c-0.1,0-0.1,0-0.1,0c-0.1,0-0.1,0-0.1,0c-0.1,0-0.1,0-0.1,0c-0.1,0-0.1,0-0.1,0.1l-0.1,0c0,0,0,0-0.1,0
			c-0.1,0-0.1,0.1-0.1,0.2c-0.1,0-0.1,0-0.1,0.1c-0.1,0-0.1,0.1-0.1,0.2c0,0-0.1,0.1-0.1,0.1c0,0-0.1,0.1-0.1,0.2c0,0,0,0.1-0.1,0.2
			c0,0,0,0.1,0,0.2c0,0,0,0.1,0,0.2v0l0.4,5.7c0.1,0.8,0.7,1.4,1.5,1.4c0.1,0,0.1,0,0.1,0c0.9,0,1.4-0.8,1.4-1.6l-0.1-2
			C19.5,59,25.8,61,32,61c7.5,0,14.8-2.8,20.5-8.5C61,44,63.4,31.4,58.5,20.3z"/>
		<path class="st0" d="M13.6,13.6C23,4.2,37.8,3.5,48,11.4l-2.7,0.3c-0.8,0.1-1.4,0.9-1.3,1.6c0.1,0.8,0.8,1.3,1.5,1.3
			c0,0,0.1,0,0.2,0l6-0.7h0c0,0,0.1,0,0.2-0.1c0,0,0.1,0,0.2-0.1c0,0,0.1-0.1,0.2-0.1c0,0,0.1-0.1,0.2-0.1c0,0,0-0.1,0.1-0.1
			c0-0.1,0.1-0.1,0.2-0.1l0-0.1c0,0,0-0.1,0-0.1c0-0.1,0-0.1,0.1-0.1c0-0.1,0-0.1,0-0.1c0-0.1,0-0.1,0-0.1c0-0.1,0-0.1,0-0.1
			c0-0.1,0-0.1,0-0.1c0-0.1,0-0.1,0-0.1c0-0.1,0-0.1,0-0.1c0-0.1,0-0.1,0-0.1v-0.1l-0.3-5.7c0-0.8-0.8-1.5-1.6-1.4s-1.5,0.8-1.4,1.6
			l0.1,2C38.3,0.2,21.9,1,11.5,11.5C3,20,0.6,32.5,5.4,43.5c0.2,0.5,0.8,0.9,1.4,0.9c0.2,0,0.4,0,0.6-0.1c0.7-0.3,1.1-1.2,0.8-2
			C3.8,32.5,6,21.2,13.6,13.6z"/>
	</g>
	<g>
		<g>
			<g>
				<g>
					<path class="st0" d="M37.8,20.5H26.2c-0.5,0-1,0.3-1.3,0.8l-5.8,10c-0.2,0.5-0.2,1,0,1.5l5.8,10c0.2,0.5,0.8,0.8,1.3,0.8h11.5
						c0.5,0,1-0.3,1.3-0.8l5.8-10c0.2-0.5,0.2-1,0-1.5l-5.8-10C38.8,20.8,38.3,20.5,37.8,20.5z"/>
				</g>
				<g>
					<circle class="st1" cx="32" cy="32" r="5.8"/>
				</g>
			</g>
		</g>
	</g>
</g>
</svg>
